<?xml version="1.0" encoding="UTF-8" standalone="no"?>
<!DOCTYPE svg PUBLIC "-//W3C//DTD SVG 1.1//EN"
 "http://www.w3.org/Graphics/SVG/1.1/DTD/svg11.dtd">
<!-- Generated by graphviz version 7.0.6 (20230106.0513)
 -->
<!-- Pages: 1 -->
<svg width="827pt" height="218pt"
 viewBox="0.00 0.00 827.24 218.00" xmlns="http://www.w3.org/2000/svg" xmlns:xlink="http://www.w3.org/1999/xlink">
<g id="graph0" class="graph" transform="scale(1 1) rotate(0) translate(4 214)">
<polygon fill="white" stroke="none" points="-4,4 -4,-214 823.24,-214 823.24,4 -4,4"/>
<!-- udef_q -->
<g id="node1" class="node">
<title>udef_q</title>
<ellipse fill="none" stroke="black" cx="279.44" cy="-105" rx="35.19" ry="18"/>
<text text-anchor="middle" x="279.44" y="-101.3" font-family="Times,serif" font-size="14.00">udef_q</text>
</g>
<!-- _reserve_n_1 -->
<g id="node2" class="node">
<title>_reserve_n_1</title>
<ellipse fill="none" stroke="black" cx="209.44" cy="-18" rx="57.69" ry="18"/>
<text text-anchor="middle" x="209.44" y="-14.3" font-family="Times,serif" font-size="14.00">_reserve_n_1</text>
</g>
<!-- udef_q&#45;&gt;_reserve_n_1 -->
<g id="edge1" class="edge">
<title>udef_q&#45;&gt;_reserve_n_1</title>
<path fill="none" stroke="black" d="M251.74,-93.39C234.75,-86.27 215.33,-76.79 210.44,-69 206.44,-62.63 205.03,-54.85 204.92,-47.33"/>
<polygon fill="black" stroke="black" points="208.41,-47.71 205.53,-37.51 201.42,-47.27 208.41,-47.71"/>
<text text-anchor="middle" x="219.94" y="-57.8" font-family="Times,serif" font-size="14.00">BV</text>
</g>
<!-- _barrel_n_1 -->
<g id="node9" class="node">
<title>_barrel_n_1</title>
<ellipse fill="none" stroke="black" cx="395.44" cy="-18" rx="53.09" ry="18"/>
<text text-anchor="middle" x="395.44" y="-14.3" font-family="Times,serif" font-size="14.00">_barrel_n_1</text>
</g>
<!-- udef_q&#45;&gt;_barrel_n_1 -->
<g id="edge9" class="edge">
<title>udef_q&#45;&gt;_barrel_n_1</title>
<path fill="none" stroke="black" d="M312.47,-98.42C332.25,-93.59 356.72,-84.78 373.44,-69 379.72,-63.07 384.32,-55.03 387.63,-47.14"/>
<polygon fill="black" stroke="black" points="390.93,-48.32 391,-37.73 384.34,-45.96 390.93,-48.32"/>
<text text-anchor="middle" x="393.94" y="-57.8" font-family="Times,serif" font-size="14.00">BV</text>
</g>
<!-- _for_p -->
<g id="node3" class="node">
<title>_for_p</title>
<ellipse fill="none" stroke="black" cx="456.44" cy="-105" rx="34.39" ry="18"/>
<text text-anchor="middle" x="456.44" y="-101.3" font-family="Times,serif" font-size="14.00">_for_p</text>
</g>
<!-- _for_p&#45;&gt;_reserve_n_1 -->
<g id="edge2" class="edge">
<title>_for_p&#45;&gt;_reserve_n_1</title>
<path fill="none" stroke="black" d="M445.03,-87.87C436.11,-76.55 422.71,-62.05 407.44,-54 395.48,-47.69 325.43,-36.19 272.02,-28.1"/>
<polygon fill="black" stroke="black" points="272.8,-24.68 262.39,-26.66 271.76,-31.6 272.8,-24.68"/>
<text text-anchor="middle" x="445.44" y="-57.8" font-family="Times,serif" font-size="14.00">ARG1</text>
</g>
<!-- named -->
<g id="node4" class="node">
<title>named</title>
<ellipse fill="none" stroke="black" cx="643.44" cy="-18" rx="34.39" ry="18"/>
<text text-anchor="middle" x="643.44" y="-14.3" font-family="Times,serif" font-size="14.00">named</text>
</g>
<!-- _for_p&#45;&gt;named -->
<g id="edge3" class="edge">
<title>_for_p&#45;&gt;named</title>
<path fill="none" stroke="black" d="M464.84,-87.14C471.21,-76.08 480.99,-62.19 493.44,-54 524.59,-33.53 566.28,-24.97 597.81,-21.43"/>
<polygon fill="black" stroke="black" points="597.81,-24.94 607.42,-20.48 597.12,-17.98 597.81,-24.94"/>
<text text-anchor="middle" x="511.44" y="-57.8" font-family="Times,serif" font-size="14.00">ARG2</text>
</g>
<!-- _the_q -->
<g id="node5" class="node">
<title>_the_q</title>
<ellipse fill="none" stroke="black" cx="673.44" cy="-105" rx="34.39" ry="18"/>
<text text-anchor="middle" x="673.44" y="-101.3" font-family="Times,serif" font-size="14.00">_the_q</text>
</g>
<!-- _the_q&#45;&gt;named -->
<g id="edge4" class="edge">
<title>_the_q&#45;&gt;named</title>
<path fill="none" stroke="black" d="M667.37,-86.8C663.34,-75.39 657.97,-60.16 653.33,-47.03"/>
<polygon fill="black" stroke="black" points="656.63,-45.87 650.01,-37.6 650.03,-48.2 656.63,-45.87"/>
<text text-anchor="middle" x="668.94" y="-57.8" font-family="Times,serif" font-size="14.00">BV</text>
</g>
<!-- card -->
<g id="node6" class="node">
<title>card</title>
<ellipse fill="none" stroke="black" cx="574.44" cy="-105" rx="27" ry="18"/>
<text text-anchor="middle" x="574.44" y="-101.3" font-family="Times,serif" font-size="14.00">card</text>
</g>
<!-- card&#45;&gt;named -->
<g id="edge5" class="edge">
<title>card&#45;&gt;named</title>
<path fill="none" stroke="black" d="M586.78,-88.8C596.98,-76.23 611.68,-58.12 623.55,-43.5"/>
<polygon fill="black" stroke="black" points="625.97,-46.08 629.55,-36.11 620.53,-41.66 625.97,-46.08"/>
<text text-anchor="middle" x="630.44" y="-57.8" font-family="Times,serif" font-size="14.00">ARG1</text>
</g>
<!-- card&#45;&gt;_barrel_n_1 -->
<g id="edge10" class="edge">
<title>card&#45;&gt;_barrel_n_1</title>
<path fill="none" stroke="black" d="M564.98,-87.7C557.72,-76.59 546.7,-62.43 533.44,-54 510.74,-39.57 482.4,-31.08 457.32,-26.1"/>
<polygon fill="black" stroke="black" points="458.01,-22.66 447.54,-24.31 456.75,-29.55 458.01,-22.66"/>
<text text-anchor="middle" x="568.44" y="-57.8" font-family="Times,serif" font-size="14.00">ARG1</text>
</g>
<!-- _new_a_1 -->
<g id="node7" class="node">
<title>_new_a_1</title>
<ellipse fill="none" stroke="black" cx="772.44" cy="-105" rx="46.59" ry="18"/>
<text text-anchor="middle" x="772.44" y="-101.3" font-family="Times,serif" font-size="14.00">_new_a_1</text>
</g>
<!-- _new_a_1&#45;&gt;named -->
<g id="edge6" class="edge">
<title>_new_a_1&#45;&gt;named</title>
<path fill="none" stroke="black" d="M749.67,-89C728.54,-75.07 696.92,-54.24 673.67,-38.92"/>
<polygon fill="black" stroke="black" points="675.81,-36.14 665.54,-33.56 671.96,-41.98 675.81,-36.14"/>
<text text-anchor="middle" x="733.44" y="-57.8" font-family="Times,serif" font-size="14.00">ARG1</text>
</g>
<!-- _total_v_1&#45;fn.Amounting_to -->
<g id="node8" class="node">
<title>_total_v_1&#45;fn.Amounting_to</title>
<ellipse fill="none" stroke="black" cx="112.44" cy="-105" rx="112.38" ry="18"/>
<text text-anchor="middle" x="112.44" y="-101.3" font-family="Times,serif" font-size="14.00">_total_v_1&#45;fn.Amounting_to</text>
</g>
<!-- _total_v_1&#45;fn.Amounting_to&#45;&gt;_reserve_n_1 -->
<g id="edge7" class="edge">
<title>_total_v_1&#45;fn.Amounting_to&#45;&gt;_reserve_n_1</title>
<path fill="none" stroke="black" d="M74.71,-87.69C58.99,-78.57 46.45,-66.54 56.44,-54 67.6,-40 107.61,-31.15 143.92,-25.85"/>
<polygon fill="black" stroke="black" points="144.11,-29.36 153.54,-24.53 143.15,-22.43 144.11,-29.36"/>
<text text-anchor="middle" x="129.44" y="-57.8" font-family="Times,serif" font-size="14.00">ARG1&#45;fn.Theme;Attribute</text>
</g>
<!-- _total_v_1&#45;fn.Amounting_to&#45;&gt;_barrel_n_1 -->
<g id="edge8" class="edge">
<title>_total_v_1&#45;fn.Amounting_to&#45;&gt;_barrel_n_1</title>
<path fill="none" stroke="black" d="M175.78,-89.77C193.67,-84.51 212.79,-77.66 229.44,-69 238.99,-64.04 238.76,-58.69 248.44,-54 275.52,-40.88 307.84,-32.5 335.28,-27.23"/>
<polygon fill="black" stroke="black" points="335.6,-30.73 344.82,-25.5 334.35,-23.84 335.6,-30.73"/>
<text text-anchor="middle" x="308.94" y="-57.8" font-family="Times,serif" font-size="14.00">ARG2&#45;fn.Value;Value</text>
</g>
<!-- times -->
<g id="node10" class="node">
<title>times</title>
<ellipse fill="none" stroke="black" cx="573.44" cy="-192" rx="30.59" ry="18"/>
<text text-anchor="middle" x="573.44" y="-188.3" font-family="Times,serif" font-size="14.00">times</text>
</g>
<!-- times&#45;&gt;card -->
<g id="edge11" class="edge">
<title>times&#45;&gt;card</title>
<path fill="none" stroke="black" d="M557.34,-176.3C548.8,-166.65 540.92,-153.54 545.44,-141 546.96,-136.78 549.24,-132.7 551.86,-128.92"/>
<polygon fill="black" stroke="black" points="554.38,-131.37 557.91,-121.38 548.92,-126.99 554.38,-131.37"/>
<text text-anchor="middle" x="563.44" y="-144.8" font-family="Times,serif" font-size="14.00">ARG2</text>
</g>
<!-- times&#45;&gt;card -->
<g id="edge12" class="edge">
<title>times&#45;&gt;card</title>
<path fill="none" stroke="black" d="M578.12,-174.04C579.48,-168.35 580.77,-161.95 581.44,-156 582.23,-148.97 581.83,-141.4 580.91,-134.33"/>
<polygon fill="black" stroke="black" points="584.38,-133.85 579.24,-124.59 577.48,-135.04 584.38,-133.85"/>
<text text-anchor="middle" x="599.44" y="-144.8" font-family="Times,serif" font-size="14.00">ARG3</text>
</g>
</g>
</svg>
